<svg width="43" height="39" viewBox="0 0 43 39" fill="none" xmlns="http://www.w3.org/2000/svg">
  <path fill-rule="evenodd" clip-rule="evenodd"
    d="M0.613145 1.19932C0.774698 0.391556 1.56048 -0.1323 2.36824 0.0292525L4.45514 0.446631C6.81228 0.918059 8.58525 2.87336 8.82444 5.26525L8.994 6.96084H35.9919C39.9381 6.96084 42.8335 10.6693 41.8765 14.4976L39.6436 23.4291C38.7029 27.1917 35.3222 29.8312 31.4439 29.8312H13.5593C10.7909 29.8312 8.45914 27.7625 8.12929 25.0138L6.16149 8.61546L5.85615 5.56207C5.74743 4.47485 4.94153 3.58608 3.8701 3.37179L1.78321 2.95442C0.975449 2.79286 0.451593 2.00708 0.613145 1.19932ZM15.9966 21.6232C15.5823 21.6232 15.2466 21.959 15.2466 22.3732C15.2466 22.7874 15.5823 23.1232 15.9966 23.1232H23.9515C24.3657 23.1232 24.7015 22.7874 24.7015 22.3732C24.7015 21.959 24.3657 21.6232 23.9515 21.6232H15.9966Z"
    fill="#F2F2F2" />
  <circle cx="15.0025" cy="35.3001" r="2.98309" fill="#F2F2F2" />
  <circle cx="32.9011" cy="35.3001" r="2.98309" fill="#F2F2F2" />
</svg>